<mxfile host="app.diagrams.net" modified="2021-07-14T14:43:38.229Z" agent="5.0 (Windows NT 10.0; WOW64) AppleWebKit/537.36 (KHTML, like Gecko) Chrome/91.0.4472.114 Safari/537.36" etag="J3EuriwXPx7X2HMfQZm1" version="14.8.6" type="github">
  <diagram id="UuyM_oUdFWU5R_c15sy-" name="Page-1">
    <mxGraphModel dx="898" dy="490" grid="0" gridSize="10" guides="1" tooltips="1" connect="1" arrows="1" fold="1" page="1" pageScale="1" pageWidth="180" pageHeight="270" background="none" math="0" shadow="0">
      <root>
        <mxCell id="0" />
        <mxCell id="1" parent="0" />
        <mxCell id="JzeU--5sNepgd2Etx_dD-1" value="&lt;font style=&quot;font-size: 14px&quot;&gt;{c2, c4}&lt;/font&gt;" style="rounded=0;whiteSpace=wrap;html=1;strokeWidth=1;strokeColor=#CCCCCC;" parent="1" vertex="1">
          <mxGeometry x="29" y="37" width="123" height="50" as="geometry" />
        </mxCell>
        <mxCell id="JzeU--5sNepgd2Etx_dD-2" value="&lt;font style=&quot;font-size: 14px&quot;&gt;Emotion set&lt;/font&gt;" style="text;html=1;strokeColor=none;fillColor=none;align=center;verticalAlign=middle;whiteSpace=wrap;rounded=0;" parent="1" vertex="1">
          <mxGeometry x="52.5" y="12" width="76" height="20" as="geometry" />
        </mxCell>
        <mxCell id="JzeU--5sNepgd2Etx_dD-3" value="" style="endArrow=classic;html=1;shape=flexArrow;" parent="1" edge="1">
          <mxGeometry width="50" height="50" relative="1" as="geometry">
            <mxPoint x="90" y="104" as="sourcePoint" />
            <mxPoint x="90" y="141" as="targetPoint" />
          </mxGeometry>
        </mxCell>
        <mxCell id="JzeU--5sNepgd2Etx_dD-4" value="&lt;font style=&quot;font-size: 14px&quot;&gt;{ (c2, c3), (c4, c4) }&lt;/font&gt;" style="rounded=0;whiteSpace=wrap;html=1;strokeWidth=1;strokeColor=#CCCCCC;" parent="1" vertex="1">
          <mxGeometry x="29" y="150" width="123" height="50" as="geometry" />
        </mxCell>
      </root>
    </mxGraphModel>
  </diagram>
</mxfile>
